<svg xmlns="http://www.w3.org/2000/svg" viewBox="0 0 1200 630" fill="none">
  <rect width="1200" height="630" rx="28" fill="#0B1224"/>
  <defs>
    <linearGradient id="g1" x1="0" y1="0" x2="0" y2="1">
      <stop offset="0" stop-color="#12294b"/>
      <stop offset="1" stop-color="#0b1224"/>
    </linearGradient>
  </defs>
  <rect x="80" y="120" width="1040" height="360" rx="18" fill="url(#g1)" stroke="#1e3a8a" stroke-width="2" opacity="0.9"/>
  <path d="M120 420 C260 260 420 520 600 260 C820 40 980 360 1120 240" stroke="#38bdf8" stroke-width="8" fill="none" stroke-linecap="round"/>
  <path d="M120 360 C260 210 420 470 600 230 C820 20 980 320 1120 200" stroke="#22d3ee" stroke-width="4" fill="none" stroke-dasharray="12 12" opacity="0.7"/>
  <g fill="#f97316" opacity="0.9">
    <circle cx="220" cy="330" r="14"/>
    <circle cx="420" cy="300" r="14"/>
    <circle cx="640" cy="250" r="14"/>
    <circle cx="860" cy="290" r="14"/>
    <circle cx="1040" cy="240" r="14"/>
  </g>
  <g fill="#22c55e" opacity="0.9">
    <circle cx="220" cy="470" r="12"/>
    <circle cx="420" cy="470" r="12"/>
    <circle cx="640" cy="470" r="12"/>
    <circle cx="860" cy="470" r="12"/>
    <circle cx="1040" cy="470" r="12"/>
  </g>
  <text x="160" y="180" fill="#a5b4fc" font-family="'Segoe UI', 'Inter', system-ui" font-size="26" font-weight="700">Liquidity pools near highs/lows and round numbers</text>
  <text x="160" y="520" fill="#94a3b8" font-family="'Segoe UI', 'Inter', system-ui" font-size="20">Orange = liquidity pockets | Teal = stop clusters | Solid line = price path | Dashed = liquidity gradient</text>
</svg>