<svg xmlns="http://www.w3.org/2000/svg" viewBox="0 0 1200 630" fill="none">
  <rect width="1200" height="630" rx="28" fill="#0B1224"/>
  <defs>
    <linearGradient id="bg" x1="0" y1="0" x2="1" y2="0">
      <stop offset="0" stop-color="#0f172a"/>
      <stop offset="0.5" stop-color="#111827"/>
      <stop offset="1" stop-color="#0f172a"/>
    </linearGradient>
  </defs>
  <rect x="60" y="120" width="1080" height="360" rx="18" fill="url(#bg)" stroke="#1e3a8a" stroke-width="2" opacity="0.9"/>
  <g font-family="'Segoe UI', 'Inter', system-ui" fill="#e2e8f0" font-size="22" font-weight="700">
    <text x="120" y="160">Tokyo</text>
    <text x="460" y="160">London</text>
    <text x="840" y="160">New York</text>
  </g>
  <g stroke-linecap="round" stroke-width="10">
    <line x1="140" y1="220" x2="340" y2="220" stroke="#22d3ee"/>
    <line x1="500" y1="220" x2="740" y2="220" stroke="#38bdf8"/>
    <line x1="900" y1="220" x2="1080" y2="220" stroke="#f472b6"/>
  </g>
  <path d="M120 360 C260 300 360 320 480 260 C620 200 760 320 900 260 C1040 200 1100 230 1140 210" stroke="#f59e0b" stroke-width="6" fill="none" stroke-linecap="round"/>
  <path d="M120 400 C240 360 360 340 480 320 C640 290 820 340 980 300" stroke="#22c55e" stroke-width="4" fill="none" stroke-dasharray="12 12" opacity="0.7"/>
  <g fill="#f8fafc" font-family="'Segoe UI', 'Inter', system-ui" font-size="18">
    <text x="140" y="255">Asia range</text>
    <text x="520" y="255">London sweep</text>
    <text x="920" y="255">NY expansion</text>
  </g>
  <g fill="#94a3b8" font-family="'Segoe UI', 'Inter', system-ui" font-size="16">
    <text x="160" y="440">Asia: tighter ranges, low liquidity</text>
    <text x="500" y="470">London: liquidity jump, fake breaks possible</text>
    <text x="880" y="500">NY overlap: real move often extends</text>
  </g>
</svg>